<mxfile host="app.diagrams.net" modified="2021-05-03T16:58:33.204Z" agent="5.0 (Macintosh)" etag="T4jchw5s9oesICjYxv5p" version="14.6.9" type="github">
  <diagram id="T0jhqP4zIMh3GDaXXF71" name="Page-1">
    <mxGraphModel dx="1982" dy="783" grid="1" gridSize="10" guides="1" tooltips="1" connect="1" arrows="1" fold="1" page="1" pageScale="1" pageWidth="850" pageHeight="1100" math="0" shadow="0">
      <root>
        <mxCell id="0" />
        <mxCell id="1" parent="0" />
        <mxCell id="dMr_9Dhv5NXiN-Mi2zDV-113" value="Published work" style="rounded=1;whiteSpace=wrap;html=1;fillColor=none;verticalAlign=top;" vertex="1" parent="1">
          <mxGeometry x="-790" y="610" width="340" height="290" as="geometry" />
        </mxCell>
        <mxCell id="dMr_9Dhv5NXiN-Mi2zDV-112" value="Repository" style="rounded=1;whiteSpace=wrap;html=1;fillColor=none;verticalAlign=top;" vertex="1" parent="1">
          <mxGeometry x="-600" y="30" width="510" height="400" as="geometry" />
        </mxCell>
        <mxCell id="dMr_9Dhv5NXiN-Mi2zDV-91" value="People" style="rounded=1;whiteSpace=wrap;html=1;fillColor=none;verticalAlign=top;" vertex="1" parent="1">
          <mxGeometry x="-160" y="890" width="310" height="270" as="geometry" />
        </mxCell>
        <mxCell id="dMr_9Dhv5NXiN-Mi2zDV-89" value="User" style="rounded=1;whiteSpace=wrap;html=1;fillColor=none;verticalAlign=top;" vertex="1" parent="1">
          <mxGeometry x="-150" y="910" width="140" height="240" as="geometry" />
        </mxCell>
        <mxCell id="dMr_9Dhv5NXiN-Mi2zDV-8" value="open-archaeo item" style="rounded=1;whiteSpace=wrap;html=1;fillColor=none;verticalAlign=top;" vertex="1" parent="1">
          <mxGeometry x="49" y="10" width="140" height="860" as="geometry" />
        </mxCell>
        <mxCell id="dMr_9Dhv5NXiN-Mi2zDV-18" value="" style="rounded=1;whiteSpace=wrap;html=1;fillColor=none;" vertex="1" parent="1">
          <mxGeometry x="270" y="360" width="270" height="80" as="geometry" />
        </mxCell>
        <mxCell id="dMr_9Dhv5NXiN-Mi2zDV-39" value="Kind of item" style="rounded=1;whiteSpace=wrap;html=1;fillColor=none;verticalAlign=top;" vertex="1" parent="1">
          <mxGeometry x="220" y="720" width="590" height="470" as="geometry" />
        </mxCell>
        <mxCell id="dMr_9Dhv5NXiN-Mi2zDV-3" value="Category" style="rounded=0;whiteSpace=wrap;html=1;fillColor=none;" vertex="1" parent="1">
          <mxGeometry x="60" y="720" width="120" height="60" as="geometry" />
        </mxCell>
        <mxCell id="dMr_9Dhv5NXiN-Mi2zDV-4" value="Links" style="rounded=0;whiteSpace=wrap;html=1;fillColor=none;" vertex="1" parent="1">
          <mxGeometry x="60" y="370" width="120" height="60" as="geometry" />
        </mxCell>
        <mxCell id="dMr_9Dhv5NXiN-Mi2zDV-5" value="DOI" style="rounded=0;whiteSpace=wrap;html=1;fillColor=none;" vertex="1" parent="1">
          <mxGeometry x="60" y="470" width="120" height="60" as="geometry" />
        </mxCell>
        <mxCell id="dMr_9Dhv5NXiN-Mi2zDV-6" value="&lt;div&gt;Name&lt;/div&gt;" style="rounded=0;whiteSpace=wrap;html=1;fillColor=none;" vertex="1" parent="1">
          <mxGeometry x="60" y="120" width="120" height="60" as="geometry" />
        </mxCell>
        <mxCell id="dMr_9Dhv5NXiN-Mi2zDV-7" value="Description" style="rounded=0;whiteSpace=wrap;html=1;fillColor=none;" vertex="1" parent="1">
          <mxGeometry x="60" y="200" width="120" height="60" as="geometry" />
        </mxCell>
        <mxCell id="dMr_9Dhv5NXiN-Mi2zDV-9" value="Tag" style="rounded=0;whiteSpace=wrap;html=1;fillColor=none;" vertex="1" parent="1">
          <mxGeometry x="60" y="280" width="120" height="60" as="geometry" />
        </mxCell>
        <mxCell id="dMr_9Dhv5NXiN-Mi2zDV-10" value="Status" style="rounded=0;whiteSpace=wrap;html=1;fillColor=none;" vertex="1" parent="1">
          <mxGeometry x="60" y="640" width="120" height="60" as="geometry" />
        </mxCell>
        <mxCell id="dMr_9Dhv5NXiN-Mi2zDV-11" value="Contributors" style="rounded=0;whiteSpace=wrap;html=1;fillColor=none;" vertex="1" parent="1">
          <mxGeometry x="60" y="800" width="120" height="60" as="geometry" />
        </mxCell>
        <mxCell id="dMr_9Dhv5NXiN-Mi2zDV-12" value="License" style="rounded=0;whiteSpace=wrap;html=1;fillColor=none;" vertex="1" parent="1">
          <mxGeometry x="60" y="560" width="120" height="60" as="geometry" />
        </mxCell>
        <mxCell id="dMr_9Dhv5NXiN-Mi2zDV-14" value="Host&lt;br&gt;(GitHub, BitBucket, Website, etc)" style="rounded=0;whiteSpace=wrap;html=1;fillColor=none;" vertex="1" parent="1">
          <mxGeometry x="280" y="370" width="120" height="60" as="geometry" />
        </mxCell>
        <mxCell id="dMr_9Dhv5NXiN-Mi2zDV-15" value="URL" style="rounded=0;whiteSpace=wrap;html=1;fillColor=none;" vertex="1" parent="1">
          <mxGeometry x="410" y="370" width="120" height="60" as="geometry" />
        </mxCell>
        <mxCell id="dMr_9Dhv5NXiN-Mi2zDV-17" value="" style="endArrow=none;html=1;entryX=0;entryY=0.5;entryDx=0;entryDy=0;exitX=1;exitY=0.5;exitDx=0;exitDy=0;" edge="1" parent="1" source="dMr_9Dhv5NXiN-Mi2zDV-4" target="dMr_9Dhv5NXiN-Mi2zDV-18">
          <mxGeometry width="50" height="50" relative="1" as="geometry">
            <mxPoint x="180" y="419" as="sourcePoint" />
            <mxPoint x="290" y="510" as="targetPoint" />
          </mxGeometry>
        </mxCell>
        <mxCell id="dMr_9Dhv5NXiN-Mi2zDV-20" value="" style="rounded=1;whiteSpace=wrap;html=1;fillColor=none;" vertex="1" parent="1">
          <mxGeometry x="270" y="460" width="270" height="80" as="geometry" />
        </mxCell>
        <mxCell id="dMr_9Dhv5NXiN-Mi2zDV-21" value="URI" style="rounded=0;whiteSpace=wrap;html=1;fillColor=none;" vertex="1" parent="1">
          <mxGeometry x="280" y="470" width="120" height="60" as="geometry" />
        </mxCell>
        <mxCell id="dMr_9Dhv5NXiN-Mi2zDV-22" value="Crossref API" style="rounded=0;whiteSpace=wrap;html=1;fillColor=none;" vertex="1" parent="1">
          <mxGeometry x="410" y="470" width="120" height="60" as="geometry" />
        </mxCell>
        <mxCell id="dMr_9Dhv5NXiN-Mi2zDV-23" value="" style="endArrow=none;html=1;exitX=1;exitY=0.5;exitDx=0;exitDy=0;entryX=0;entryY=0.5;entryDx=0;entryDy=0;" edge="1" parent="1" source="dMr_9Dhv5NXiN-Mi2zDV-5" target="dMr_9Dhv5NXiN-Mi2zDV-20">
          <mxGeometry width="50" height="50" relative="1" as="geometry">
            <mxPoint x="290" y="490" as="sourcePoint" />
            <mxPoint x="340" y="440" as="targetPoint" />
          </mxGeometry>
        </mxCell>
        <mxCell id="dMr_9Dhv5NXiN-Mi2zDV-24" value="UUID" style="rounded=0;whiteSpace=wrap;html=1;fillColor=none;" vertex="1" parent="1">
          <mxGeometry x="60" y="40" width="120" height="60" as="geometry" />
        </mxCell>
        <mxCell id="dMr_9Dhv5NXiN-Mi2zDV-26" value="Name of the repository" style="rounded=1;whiteSpace=wrap;html=1;fillColor=none;" vertex="1" parent="1">
          <mxGeometry x="270" y="120" width="120" height="60" as="geometry" />
        </mxCell>
        <mxCell id="dMr_9Dhv5NXiN-Mi2zDV-27" value="" style="endArrow=none;html=1;exitX=1;exitY=0.5;exitDx=0;exitDy=0;entryX=0;entryY=0.5;entryDx=0;entryDy=0;" edge="1" parent="1" source="dMr_9Dhv5NXiN-Mi2zDV-6" target="dMr_9Dhv5NXiN-Mi2zDV-26">
          <mxGeometry width="50" height="50" relative="1" as="geometry">
            <mxPoint x="290" y="300" as="sourcePoint" />
            <mxPoint x="340" y="250" as="targetPoint" />
          </mxGeometry>
        </mxCell>
        <mxCell id="dMr_9Dhv5NXiN-Mi2zDV-28" value="Unique identifier" style="rounded=1;whiteSpace=wrap;html=1;fillColor=none;" vertex="1" parent="1">
          <mxGeometry x="270" y="40" width="120" height="60" as="geometry" />
        </mxCell>
        <mxCell id="dMr_9Dhv5NXiN-Mi2zDV-29" value="" style="endArrow=none;html=1;exitX=1;exitY=0.5;exitDx=0;exitDy=0;" edge="1" parent="1" source="dMr_9Dhv5NXiN-Mi2zDV-24" target="dMr_9Dhv5NXiN-Mi2zDV-28">
          <mxGeometry width="50" height="50" relative="1" as="geometry">
            <mxPoint x="290" y="300" as="sourcePoint" />
            <mxPoint x="340" y="250" as="targetPoint" />
          </mxGeometry>
        </mxCell>
        <mxCell id="dMr_9Dhv5NXiN-Mi2zDV-30" value="Brief description of the item derived from the item&#39;s documentation" style="rounded=1;whiteSpace=wrap;html=1;fillColor=none;" vertex="1" parent="1">
          <mxGeometry x="270" y="200" width="270" height="60" as="geometry" />
        </mxCell>
        <mxCell id="dMr_9Dhv5NXiN-Mi2zDV-31" value="" style="endArrow=none;html=1;exitX=1;exitY=0.5;exitDx=0;exitDy=0;entryX=0;entryY=0.5;entryDx=0;entryDy=0;" edge="1" parent="1" source="dMr_9Dhv5NXiN-Mi2zDV-7" target="dMr_9Dhv5NXiN-Mi2zDV-30">
          <mxGeometry width="50" height="50" relative="1" as="geometry">
            <mxPoint x="290" y="300" as="sourcePoint" />
            <mxPoint x="270" y="250" as="targetPoint" />
          </mxGeometry>
        </mxCell>
        <mxCell id="dMr_9Dhv5NXiN-Mi2zDV-37" value="Software" style="rounded=1;whiteSpace=wrap;html=1;fillColor=none;verticalAlign=top;" vertex="1" parent="1">
          <mxGeometry x="230" y="750" width="350" height="400" as="geometry" />
        </mxCell>
        <mxCell id="dMr_9Dhv5NXiN-Mi2zDV-38" value="Document" style="rounded=1;whiteSpace=wrap;html=1;fillColor=none;verticalAlign=top;" vertex="1" parent="1">
          <mxGeometry x="590" y="750" width="210" height="400" as="geometry" />
        </mxCell>
        <mxCell id="dMr_9Dhv5NXiN-Mi2zDV-40" value="Web app&lt;br&gt;&lt;font style=&quot;font-size: 10px&quot;&gt;Accessed using a web browser&lt;/font&gt;" style="rounded=1;whiteSpace=wrap;html=1;fillColor=none;" vertex="1" parent="1">
          <mxGeometry x="240" y="780" width="330" height="60" as="geometry" />
        </mxCell>
        <mxCell id="dMr_9Dhv5NXiN-Mi2zDV-42" value="Standalone software&lt;br&gt;&lt;font style=&quot;font-size: 10px&quot;&gt;Executable software&lt;/font&gt;" style="rounded=1;whiteSpace=wrap;html=1;fillColor=none;" vertex="1" parent="1">
          <mxGeometry x="240" y="850" width="330" height="60" as="geometry" />
        </mxCell>
        <mxCell id="dMr_9Dhv5NXiN-Mi2zDV-43" value="Packages / Library&lt;br&gt;&lt;font style=&quot;font-size: 10px&quot;&gt;Sets of functions assembled with clear purpose, and made accessible using standards established by an underlying platform&lt;/font&gt;" style="rounded=1;whiteSpace=wrap;html=1;fillColor=none;" vertex="1" parent="1">
          <mxGeometry x="240" y="920" width="330" height="70" as="geometry" />
        </mxCell>
        <mxCell id="dMr_9Dhv5NXiN-Mi2zDV-44" value="Snippets&lt;br&gt;&lt;font style=&quot;font-size: 10px&quot;&gt;Sets of pragmatically assembled immutable functions, often lacking complete documentation or adherence to protocols that would otherwise facilitate secondary use outside their original contexts of creation&lt;/font&gt;" style="rounded=1;whiteSpace=wrap;html=1;fillColor=none;" vertex="1" parent="1">
          <mxGeometry x="240" y="1000" width="330" height="80" as="geometry" />
        </mxCell>
        <mxCell id="dMr_9Dhv5NXiN-Mi2zDV-46" value="List / Dataset&lt;br&gt;&lt;font style=&quot;font-size: 10px&quot;&gt;A series of consistently organized observations assembled with purpose&lt;/font&gt;" style="rounded=1;whiteSpace=wrap;html=1;fillColor=none;" vertex="1" parent="1">
          <mxGeometry x="600" y="920" width="190" height="70" as="geometry" />
        </mxCell>
        <mxCell id="dMr_9Dhv5NXiN-Mi2zDV-47" value="&lt;div&gt;Guide&lt;/div&gt;&lt;div style=&quot;font-size: 10px&quot;&gt;An educational resource or documented protocol meant to instruct readers how to apply relevant tools or techniques&lt;br&gt;&lt;/div&gt;" style="rounded=1;whiteSpace=wrap;html=1;fillColor=none;" vertex="1" parent="1">
          <mxGeometry x="600" y="780" width="190" height="60" as="geometry" />
        </mxCell>
        <mxCell id="dMr_9Dhv5NXiN-Mi2zDV-48" value="&lt;div&gt;Template / Schema&lt;br&gt;&lt;font style=&quot;font-size: 10px&quot;&gt;A formal data structure of framework intended&lt;/font&gt; to be used as a model&lt;br&gt;&lt;/div&gt;" style="rounded=1;whiteSpace=wrap;html=1;fillColor=none;" vertex="1" parent="1">
          <mxGeometry x="600" y="850" width="190" height="60" as="geometry" />
        </mxCell>
        <mxCell id="dMr_9Dhv5NXiN-Mi2zDV-51" value="&lt;div&gt;Product&lt;/div&gt;&lt;font style=&quot;font-size: 10px&quot;&gt;An immutable creatio&lt;font style=&quot;font-size: 10px&quot;&gt;n&lt;/font&gt;&lt;/font&gt;&lt;font style=&quot;font-size: 10px&quot;&gt; deemed within scope due to the relevance of its content or its value as an exemplar&lt;/font&gt;" style="rounded=1;whiteSpace=wrap;html=1;fillColor=none;" vertex="1" parent="1">
          <mxGeometry x="600" y="1000" width="190" height="70" as="geometry" />
        </mxCell>
        <mxCell id="dMr_9Dhv5NXiN-Mi2zDV-52" value="" style="endArrow=none;html=1;entryX=1;entryY=0.5;entryDx=0;entryDy=0;exitX=0;exitY=0.25;exitDx=0;exitDy=0;" edge="1" parent="1" source="dMr_9Dhv5NXiN-Mi2zDV-39" target="dMr_9Dhv5NXiN-Mi2zDV-3">
          <mxGeometry width="50" height="50" relative="1" as="geometry">
            <mxPoint x="270" y="640" as="sourcePoint" />
            <mxPoint x="460" y="700" as="targetPoint" />
          </mxGeometry>
        </mxCell>
        <mxCell id="dMr_9Dhv5NXiN-Mi2zDV-53" value="A term used to identify the domain of research that this item is meant to serve" style="rounded=1;whiteSpace=wrap;html=1;fillColor=none;" vertex="1" parent="1">
          <mxGeometry x="270" y="280" width="270" height="60" as="geometry" />
        </mxCell>
        <mxCell id="dMr_9Dhv5NXiN-Mi2zDV-54" value="" style="endArrow=none;html=1;entryX=1;entryY=0.5;entryDx=0;entryDy=0;exitX=0;exitY=0.5;exitDx=0;exitDy=0;" edge="1" parent="1" source="dMr_9Dhv5NXiN-Mi2zDV-53" target="dMr_9Dhv5NXiN-Mi2zDV-9">
          <mxGeometry width="50" height="50" relative="1" as="geometry">
            <mxPoint x="410" y="810" as="sourcePoint" />
            <mxPoint x="460" y="760" as="targetPoint" />
          </mxGeometry>
        </mxCell>
        <mxCell id="dMr_9Dhv5NXiN-Mi2zDV-58" value="Fulltext + metadata OR none" style="rounded=1;whiteSpace=wrap;html=1;fillColor=none;" vertex="1" parent="1">
          <mxGeometry x="270" y="560" width="270" height="60" as="geometry" />
        </mxCell>
        <mxCell id="dMr_9Dhv5NXiN-Mi2zDV-59" value="Active OR inactive" style="rounded=1;whiteSpace=wrap;html=1;fillColor=none;" vertex="1" parent="1">
          <mxGeometry x="270" y="640" width="270" height="60" as="geometry" />
        </mxCell>
        <mxCell id="dMr_9Dhv5NXiN-Mi2zDV-60" value="" style="endArrow=none;html=1;exitX=1;exitY=0.5;exitDx=0;exitDy=0;entryX=0;entryY=0.5;entryDx=0;entryDy=0;" edge="1" parent="1" source="dMr_9Dhv5NXiN-Mi2zDV-12" target="dMr_9Dhv5NXiN-Mi2zDV-58">
          <mxGeometry width="50" height="50" relative="1" as="geometry">
            <mxPoint x="210" y="640" as="sourcePoint" />
            <mxPoint x="260" y="590" as="targetPoint" />
          </mxGeometry>
        </mxCell>
        <mxCell id="dMr_9Dhv5NXiN-Mi2zDV-62" value="" style="endArrow=none;html=1;exitX=1;exitY=0.5;exitDx=0;exitDy=0;entryX=0;entryY=0.5;entryDx=0;entryDy=0;" edge="1" parent="1" source="dMr_9Dhv5NXiN-Mi2zDV-10" target="dMr_9Dhv5NXiN-Mi2zDV-59">
          <mxGeometry width="50" height="50" relative="1" as="geometry">
            <mxPoint x="210" y="640" as="sourcePoint" />
            <mxPoint x="260" y="590" as="targetPoint" />
          </mxGeometry>
        </mxCell>
        <mxCell id="dMr_9Dhv5NXiN-Mi2zDV-65" value="Defined manually" style="rounded=1;whiteSpace=wrap;html=1;fillColor=none;verticalAlign=top;" vertex="1" parent="1">
          <mxGeometry x="-20" y="1180" width="180" height="390" as="geometry" />
        </mxCell>
        <mxCell id="dMr_9Dhv5NXiN-Mi2zDV-66" value="Retrieved automatically" style="rounded=1;whiteSpace=wrap;html=1;fillColor=none;verticalAlign=top;" vertex="1" parent="1">
          <mxGeometry x="-220" y="1180" width="140" height="390" as="geometry" />
        </mxCell>
        <mxCell id="dMr_9Dhv5NXiN-Mi2zDV-67" value="Code contributors" style="rounded=1;whiteSpace=wrap;html=1;fillColor=none;" vertex="1" parent="1">
          <mxGeometry x="-210" y="1210" width="120" height="60" as="geometry" />
        </mxCell>
        <mxCell id="dMr_9Dhv5NXiN-Mi2zDV-68" value="Issue posters" style="rounded=1;whiteSpace=wrap;html=1;fillColor=none;" vertex="1" parent="1">
          <mxGeometry x="-210" y="1280" width="120" height="60" as="geometry" />
        </mxCell>
        <mxCell id="dMr_9Dhv5NXiN-Mi2zDV-69" value="Issue participants" style="rounded=1;whiteSpace=wrap;html=1;fillColor=none;" vertex="1" parent="1">
          <mxGeometry x="-210" y="1350" width="120" height="60" as="geometry" />
        </mxCell>
        <mxCell id="dMr_9Dhv5NXiN-Mi2zDV-71" value="Code" style="rounded=1;whiteSpace=wrap;html=1;fillColor=none;" vertex="1" parent="1">
          <mxGeometry x="-560" y="60" width="120" height="60" as="geometry" />
        </mxCell>
        <mxCell id="dMr_9Dhv5NXiN-Mi2zDV-72" value="Documentation (readme, contributing, man, forum, wiki, etc)" style="rounded=1;whiteSpace=wrap;html=1;fillColor=none;" vertex="1" parent="1">
          <mxGeometry x="-420" y="230" width="120" height="60" as="geometry" />
        </mxCell>
        <mxCell id="dMr_9Dhv5NXiN-Mi2zDV-73" value="License" style="rounded=1;whiteSpace=wrap;html=1;fillColor=none;" vertex="1" parent="1">
          <mxGeometry x="-240" y="330" width="120" height="60" as="geometry" />
        </mxCell>
        <mxCell id="dMr_9Dhv5NXiN-Mi2zDV-74" value="Issues" style="rounded=1;whiteSpace=wrap;html=1;fillColor=none;" vertex="1" parent="1">
          <mxGeometry x="-410" y="60" width="120" height="60" as="geometry" />
        </mxCell>
        <mxCell id="dMr_9Dhv5NXiN-Mi2zDV-75" value="Pull Requests" style="rounded=1;whiteSpace=wrap;html=1;fillColor=none;" vertex="1" parent="1">
          <mxGeometry x="-270" y="60" width="120" height="60" as="geometry" />
        </mxCell>
        <mxCell id="dMr_9Dhv5NXiN-Mi2zDV-76" value="Branches" style="rounded=1;whiteSpace=wrap;html=1;fillColor=none;" vertex="1" parent="1">
          <mxGeometry x="-570" y="320" width="120" height="60" as="geometry" />
        </mxCell>
        <mxCell id="dMr_9Dhv5NXiN-Mi2zDV-77" value="Stars" style="rounded=1;whiteSpace=wrap;html=1;fillColor=none;" vertex="1" parent="1">
          <mxGeometry x="-425" y="320" width="120" height="60" as="geometry" />
        </mxCell>
        <mxCell id="dMr_9Dhv5NXiN-Mi2zDV-79" value="Forks" style="rounded=1;whiteSpace=wrap;html=1;fillColor=none;" vertex="1" parent="1">
          <mxGeometry x="-570" y="240" width="120" height="60" as="geometry" />
        </mxCell>
        <mxCell id="dMr_9Dhv5NXiN-Mi2zDV-80" value="PR contributors" style="rounded=1;whiteSpace=wrap;html=1;fillColor=none;" vertex="1" parent="1">
          <mxGeometry x="-210" y="1420" width="120" height="60" as="geometry" />
        </mxCell>
        <mxCell id="dMr_9Dhv5NXiN-Mi2zDV-81" value="PR Participants" style="rounded=1;whiteSpace=wrap;html=1;fillColor=none;" vertex="1" parent="1">
          <mxGeometry x="-210" y="1490" width="120" height="60" as="geometry" />
        </mxCell>
        <mxCell id="dMr_9Dhv5NXiN-Mi2zDV-82" value="Credited in documentation" style="rounded=1;whiteSpace=wrap;html=1;fillColor=none;" vertex="1" parent="1">
          <mxGeometry x="-10" y="1210" width="160" height="60" as="geometry" />
        </mxCell>
        <mxCell id="dMr_9Dhv5NXiN-Mi2zDV-83" value="Credited in publication" style="rounded=1;whiteSpace=wrap;html=1;fillColor=none;" vertex="1" parent="1">
          <mxGeometry x="-10" y="1280" width="160" height="60" as="geometry" />
        </mxCell>
        <mxCell id="dMr_9Dhv5NXiN-Mi2zDV-84" value="Credited in personal communication" style="rounded=1;whiteSpace=wrap;html=1;fillColor=none;" vertex="1" parent="1">
          <mxGeometry x="-10" y="1350" width="160" height="60" as="geometry" />
        </mxCell>
        <mxCell id="dMr_9Dhv5NXiN-Mi2zDV-85" value="Individual" style="rounded=1;whiteSpace=wrap;html=1;fillColor=none;" vertex="1" parent="1">
          <mxGeometry x="-140" y="940" width="120" height="60" as="geometry" />
        </mxCell>
        <mxCell id="dMr_9Dhv5NXiN-Mi2zDV-86" value="Organization" style="rounded=1;whiteSpace=wrap;html=1;fillColor=none;" vertex="1" parent="1">
          <mxGeometry x="-140" y="1080" width="120" height="60" as="geometry" />
        </mxCell>
        <mxCell id="dMr_9Dhv5NXiN-Mi2zDV-87" value="" style="endArrow=classic;html=1;exitX=0.5;exitY=1;exitDx=0;exitDy=0;" edge="1" parent="1" source="dMr_9Dhv5NXiN-Mi2zDV-93" target="dMr_9Dhv5NXiN-Mi2zDV-94">
          <mxGeometry relative="1" as="geometry">
            <mxPoint x="135" y="974.1700000000001" as="sourcePoint" />
            <mxPoint x="235" y="974.1700000000001" as="targetPoint" />
          </mxGeometry>
        </mxCell>
        <mxCell id="dMr_9Dhv5NXiN-Mi2zDV-88" value="PART_OF" style="edgeLabel;resizable=0;html=1;align=center;verticalAlign=middle;" connectable="0" vertex="1" parent="dMr_9Dhv5NXiN-Mi2zDV-87">
          <mxGeometry relative="1" as="geometry" />
        </mxCell>
        <mxCell id="dMr_9Dhv5NXiN-Mi2zDV-90" value="Non-user" style="rounded=1;whiteSpace=wrap;html=1;fillColor=none;verticalAlign=top;" vertex="1" parent="1">
          <mxGeometry y="910" width="140" height="240" as="geometry" />
        </mxCell>
        <mxCell id="dMr_9Dhv5NXiN-Mi2zDV-92" value="" style="endArrow=none;html=1;exitX=0.75;exitY=0;exitDx=0;exitDy=0;" edge="1" parent="1" source="dMr_9Dhv5NXiN-Mi2zDV-91" target="dMr_9Dhv5NXiN-Mi2zDV-11">
          <mxGeometry width="50" height="50" relative="1" as="geometry">
            <mxPoint x="-110" y="1090" as="sourcePoint" />
            <mxPoint x="-60" y="1040" as="targetPoint" />
          </mxGeometry>
        </mxCell>
        <mxCell id="dMr_9Dhv5NXiN-Mi2zDV-93" value="Individual" style="rounded=1;whiteSpace=wrap;html=1;fillColor=none;" vertex="1" parent="1">
          <mxGeometry x="10" y="940" width="120" height="60" as="geometry" />
        </mxCell>
        <mxCell id="dMr_9Dhv5NXiN-Mi2zDV-94" value="Organization" style="rounded=1;whiteSpace=wrap;html=1;fillColor=none;" vertex="1" parent="1">
          <mxGeometry x="10" y="1080" width="120" height="60" as="geometry" />
        </mxCell>
        <mxCell id="dMr_9Dhv5NXiN-Mi2zDV-97" value="" style="endArrow=none;html=1;entryX=0;entryY=0.5;entryDx=0;entryDy=0;exitX=1;exitY=0.5;exitDx=0;exitDy=0;" edge="1" parent="1" source="dMr_9Dhv5NXiN-Mi2zDV-85" target="dMr_9Dhv5NXiN-Mi2zDV-93">
          <mxGeometry width="50" height="50" relative="1" as="geometry">
            <mxPoint x="-250" y="1050" as="sourcePoint" />
            <mxPoint x="-200" y="1000" as="targetPoint" />
          </mxGeometry>
        </mxCell>
        <mxCell id="dMr_9Dhv5NXiN-Mi2zDV-98" value="" style="endArrow=none;html=1;entryX=0;entryY=0.5;entryDx=0;entryDy=0;" edge="1" parent="1" source="dMr_9Dhv5NXiN-Mi2zDV-86" target="dMr_9Dhv5NXiN-Mi2zDV-94">
          <mxGeometry width="50" height="50" relative="1" as="geometry">
            <mxPoint x="-250" y="1050" as="sourcePoint" />
            <mxPoint x="-200" y="1000" as="targetPoint" />
          </mxGeometry>
        </mxCell>
        <mxCell id="dMr_9Dhv5NXiN-Mi2zDV-99" value="" style="endArrow=none;html=1;entryX=0.25;entryY=1;entryDx=0;entryDy=0;exitX=0.5;exitY=0;exitDx=0;exitDy=0;" edge="1" parent="1" source="dMr_9Dhv5NXiN-Mi2zDV-66" target="dMr_9Dhv5NXiN-Mi2zDV-89">
          <mxGeometry width="50" height="50" relative="1" as="geometry">
            <mxPoint x="-350" y="1320" as="sourcePoint" />
            <mxPoint x="-300" y="1270" as="targetPoint" />
          </mxGeometry>
        </mxCell>
        <mxCell id="dMr_9Dhv5NXiN-Mi2zDV-101" value="Documents presenting the software" style="rounded=1;whiteSpace=wrap;html=1;fillColor=none;" vertex="1" parent="1">
          <mxGeometry x="-730" y="690" width="180" height="60" as="geometry" />
        </mxCell>
        <mxCell id="dMr_9Dhv5NXiN-Mi2zDV-110" value="" style="endArrow=none;html=1;exitX=0.75;exitY=1;exitDx=0;exitDy=0;entryX=0.25;entryY=0;entryDx=0;entryDy=0;" edge="1" parent="1" source="dMr_9Dhv5NXiN-Mi2zDV-89" target="dMr_9Dhv5NXiN-Mi2zDV-65">
          <mxGeometry width="50" height="50" relative="1" as="geometry">
            <mxPoint x="-90" y="1160" as="sourcePoint" />
            <mxPoint x="-40" y="1110" as="targetPoint" />
          </mxGeometry>
        </mxCell>
        <mxCell id="dMr_9Dhv5NXiN-Mi2zDV-111" value="" style="endArrow=none;html=1;entryX=0.75;entryY=1;entryDx=0;entryDy=0;exitX=0.75;exitY=0;exitDx=0;exitDy=0;" edge="1" parent="1" source="dMr_9Dhv5NXiN-Mi2zDV-65" target="dMr_9Dhv5NXiN-Mi2zDV-93">
          <mxGeometry width="50" height="50" relative="1" as="geometry">
            <mxPoint x="-90" y="1160" as="sourcePoint" />
            <mxPoint x="-40" y="1110" as="targetPoint" />
          </mxGeometry>
        </mxCell>
        <mxCell id="dMr_9Dhv5NXiN-Mi2zDV-114" value="URL" style="rounded=1;whiteSpace=wrap;html=1;fillColor=none;" vertex="1" parent="1">
          <mxGeometry x="-240" y="220" width="120" height="60" as="geometry" />
        </mxCell>
        <mxCell id="dMr_9Dhv5NXiN-Mi2zDV-115" value="Maintainer" style="rounded=1;whiteSpace=wrap;html=1;fillColor=none;" vertex="1" parent="1">
          <mxGeometry x="-350" y="150" width="120" height="60" as="geometry" />
        </mxCell>
        <mxCell id="dMr_9Dhv5NXiN-Mi2zDV-116" value="Software reviews" style="rounded=1;whiteSpace=wrap;html=1;fillColor=none;" vertex="1" parent="1">
          <mxGeometry x="-740" y="780" width="180" height="60" as="geometry" />
        </mxCell>
      </root>
    </mxGraphModel>
  </diagram>
</mxfile>
